<svg width="345" height="424" viewBox="0 0 345 424" fill="none" xmlns="http://www.w3.org/2000/svg">
<path fill-rule="evenodd" clip-rule="evenodd" d="M307.875 6.9999C304.069 5.51788 298.664 3.3091 295.5 2.00001C284 2.66668 260.6 4.10001 259 4.50001C257.4 4.90001 242.667 1.66667 235.5 6.99382e-06L223.971 6.9999H219.294L209 5.83547e-06L200.5 4.50001L172 4.21815e-06L159.4 6.9999H144.625L129 2L104.5 6.5L75.5 0L35 6.5L36.0998 6.9999H31C17.1929 6.9999 6 18.1928 6 31.9999V42.661C4.64154 46.0735 3.03796 49.9915 2 52.4999C2.66667 63.9999 4.1 87.3999 4.5 88.9999C4.9 90.5999 1.66667 105.333 0 112.5L6 122.382V130.176L0 139L4.5 147.5L0 176L6 186.8V206.5L2 219L6 240.778V245.731L0 272.5L6 309.885V314C6 325.637 13.951 335.417 24.7167 338.204L34.5 378L39.2485 339.153H40.044C43.0455 340.35 46.3762 341.711 48.7721 342.699L55.5 356.847L58.0433 342.493C69.8967 341.775 84.7372 340.816 85.9999 340.5C87.5999 340.1 102.333 343.333 109.5 345L116.652 340.657L126.662 353.186L132.836 342.848L136 345L144.5 340.5L173 345L183.8 339H203.5L216 343L220.226 342.224L232.764 356.847L243.012 340.373H248.856L269.5 345L289.043 341.863L304.957 370.881L307.971 410.542L312.191 423.5L314 366L325.582 336.161C333.558 331.984 339 323.627 339 314V302.339C340.358 298.926 341.962 295.008 343 292.5C342.333 281 340.9 257.6 340.5 256C340.1 254.4 343.333 239.667 345 232.5L339 222.618V214.823L345 206L340.5 197.5L345 169L339 158.2V138.5L343 126L339 104.223V99.2688L345 72.5L339 35.116V31.9999C339 18.1928 327.807 6.9999 314 6.9999H307.875ZM73.5 324L95.8073 329H110.667L127 326L136.375 329H161L170 324L198.5 328.5L207 324L214.353 329H225.265L233.5 324C240.667 325.667 255.4 328.9 257 328.5C258.6 328.1 282 326.667 293.5 326C295.412 326.791 298.142 327.911 300.844 329H314C322.284 329 329 322.284 329 314V305.886L323 268.5L329 241.73V236.779L325 215L329 202.5V182.8L323 172L327.5 143.5L323 135L329 126.176V118.383L323 108.5C324.667 101.333 327.9 86.6 327.5 85C327.1 83.4 325.667 60 325 48.5C326.038 45.9915 327.642 42.0734 329 38.6608V31.9999C329 23.7156 322.284 16.9999 314 16.9999H306.885L269.5 23L242.73 16.9999H237.778L216 21L203.5 16.9999H183.8L173 23L144.5 18.5L136 23L127.176 16.9999H119.382L109.5 23C102.333 21.3333 87.6 18.1 86 18.5C84.4 18.9 61 20.3333 49.5 21C46.9915 19.962 43.0734 18.3584 39.6609 16.9999H31C22.7157 16.9999 16 23.7156 16 31.9999V36.116L21.9999 73.5L16 100.269V105.223L19.9999 127L16 139.5V159.2L21.9999 170L17.4999 198.5L21.9999 207L16 215.823V223.618L21.9999 233.5C20.3332 240.667 17.0999 255.4 17.4999 257C17.8999 258.6 19.3332 282 19.9999 293.5C18.9619 296.008 17.3584 299.926 16 303.339V314C16 322.284 22.7157 329 31 329H42.3467L73.5 324Z" fill="#BEEDFD"/>
</svg>
